# xmcd CD database file
#
# Track frame offsets:
#	150
#	23123
#	29671
#	45989
#	58650
#	71250
#	86082
#	96090
#	106717
#	115707
#	126262
#	133945
#	144838
#	150756
#	159263
#	169615
#	189722
#	198583
#	207691
#	223390
#	229867
#	245248
#	261315
#	269733
#	279555
#	289517
#	294466
#	304870
#	312269
#
# Disc length: 4461 seconds
#
# Revision: 0
# Processed by: cddbd v1.5.2PL0 Copyright (c) Steve Scherf et al.
# Submitted via: CDex 1.70beta2
#
DISCID=b7116b1d
DTITLE=Ketil Bjørnstad - Rainbow Sessions - The Third Instrument
DYEAR=2017
DGENRE=Jazz
TTITLE0=The Story
TTITLE1=Silhouette
TTITLE2=To Fanny
TTITLE3=Song of Belonging
TTITLE4=Departure
TTITLE5=The Stranger
TTITLE6=From Beginning to the End
TTITLE7=Before the Rain
TTITLE8=A Sudden Thought
TTITLE9=Underground
TTITLE10=Missing
TTITLE11=Whatever
TTITLE12=If Not
TTITLE13=The Sorrow
TTITLE14=Perhaps
TTITLE15=Because
TTITLE16=Into the Woods
TTITLE17=The Road
TTITLE18=Painting Flowers
TTITLE19=Sea Breeze
TTITLE20=Habanéra Lamentoso
TTITLE21=The Sadness and the Beauty
TTITLE22=Miserere (After Allegri)
TTITLE23=Drifting
TTITLE24=Watercolours
TTITLE25=Oil on Canvas
TTITLE26=Tempera
TTITLE27=The Road at Night
TTITLE28=So Far, My Friend (to Jan Erik Kongshaug)
EXTD=YEAR: 2017
EXTT0=
EXTT1=
EXTT2=
EXTT3=
EXTT4=
EXTT5=
EXTT6=
EXTT7=
EXTT8=
EXTT9=
EXTT10=
EXTT11=
EXTT12=
EXTT13=
EXTT14=
EXTT15=
EXTT16=
EXTT17=
EXTT18=
EXTT19=
EXTT20=
EXTT21=
EXTT22=
EXTT23=
EXTT24=
EXTT25=
EXTT26=
EXTT27=
EXTT28=
PLAYORDER=
